<?xml version="1.0" encoding="UTF-8"?>
<svg width="16px" height="16px" viewBox="0 0 16 16" version="1.1" xmlns="http://www.w3.org/2000/svg" xmlns:xlink="http://www.w3.org/1999/xlink">
    <title>画板备份 11</title>
    <g id="画板备份-11" stroke="none" stroke-width="1" fill="none" fill-rule="evenodd">
        <polygon id="形状结合-path备份" fill="#00A4FF" points="6.54327347 5.59054589 10.716448 8 6.54327347 10.4094541"></polygon>
        <path d="M11.9128748,8.34671028 C12.3549863,8.98719862 12.719696,9.61834373 12.9980315,10.2086681 C12.5907063,10.7049318 12.147174,11.1944122 11.6707931,11.6707931 C7.82566982,15.5159164 3.1271208,17.2209631 0.95307885,15.0469212 C-0.483207393,13.6106349 -0.226419933,11.072498 1.22199794,8.40653565 C1.60100904,9.0280674 2.040132,9.65369218 2.53640412,10.2724867 C1.87795021,11.7971299 1.79387698,13.0592922 2.36729241,13.6327076 C3.46684799,14.7322632 7.09893727,13.4142218 10.2565796,10.2565796 C10.8073311,9.70582799 11.3021186,9.14064288 11.7378751,8.57697965 Z M2.72692071,6.13620512 C3.01601016,6.73257172 3.38741251,7.36152168 3.83660953,7.99954935 C3.38629344,8.63831971 3.01427826,9.26794886 2.72472843,9.86495858 C2.2419392,9.24623839 1.81503814,8.62055891 1.45101444,7.99911317 C1.77391953,7.44876344 2.14605279,6.89497064 2.56310631,6.34627214 Z M13.275276,6.13695693 C13.7585844,6.7545099 14.1853217,7.38001197 14.5492159,8.00128012 C14.1851754,8.62123651 13.7589372,9.24539889 13.2765474,9.86165795 C12.9857804,9.26563676 12.6137902,8.63668588 12.1640676,7.99876068 C12.5827375,7.4054173 12.933009,6.82054312 13.2125346,6.26232462 L13.275276,6.13695693 Z M15.0469212,0.95307885 C16.483512,2.38966966 16.226311,4.9285785 14.7770805,7.59516032 C14.3994991,6.97260179 13.9597239,6.34602679 13.4626302,5.72630926 C14.1221076,4.20200072 14.2059255,2.94051034 13.6327076,2.36729241 C12.533152,1.26773683 8.90106273,2.58577816 5.74342045,5.74342045 C5.11839157,6.36844932 4.5654399,7.01206745 4.0890481,7.65095411 C3.64617016,7.01077971 3.28195089,6.37942927 3.00426443,5.78910618 C3.41046125,5.29377977 3.85345295,4.80496082 4.32920688,4.32920688 C8.17433018,0.484083584 12.8728792,-1.2209631 15.0469212,0.95307885 Z" id="形状结合" fill="#00A4FF" fill-rule="nonzero"></path>
        <path d="M11.6739536,4.33236733 C15.5190769,8.17749063 17.2241235,12.8760396 15.0500816,15.0500816 C13.6134371,16.4867261 11.0743923,16.2294522 8.40770133,14.7800785 C9.03075117,14.4025213 9.65717937,13.9628411 10.2767538,13.4658687 C11.8008394,14.1252468 13.0625773,14.2091587 13.635868,13.635868 C14.7354236,12.5363125 13.4173823,8.90422318 10.25974,5.74658089 C9.63454582,5.12138671 8.99075255,4.56830787 8.35169943,4.09183058 C8.99193219,3.64843733 9.62273919,3.28424934 10.2126814,3.0063982 C10.7084865,3.41281143 11.1977645,3.85617828 11.6739536,4.33236733 Z M9.86712057,13.2779477 C9.24941675,13.7611964 8.6239203,14.18798 8.00265267,14.551924 C7.38197697,14.1879794 6.75701989,13.7614043 6.13996873,13.2784002 C6.73662758,12.9880467 7.36557812,12.6163504 8.00355466,12.1668905 C8.64140357,12.6167813 9.27053981,12.9885317 9.86712057,13.2779477 Z M7.59731917,1.22553566 L7.39587737,1.35093397 C6.83984832,1.69979 6.28198346,2.09734854 5.72956707,2.54045216 C4.20516117,1.88105282 2.94367079,1.79723493 2.37045286,2.37045286 C1.27089728,3.47000844 2.58893861,7.10209772 5.74658089,10.25974 C6.3720852,10.8852443 7.01620706,11.4385617 7.65557248,11.9151993 C7.01559628,12.357097 6.38534083,12.7210763 5.7958365,12.9988876 C5.29849243,12.5941058 4.80887661,12.1504628 4.33236733,11.6739536 C0.48724403,7.82883026 -1.21780266,3.13028125 0.956239296,0.956239296 C2.39265024,-0.480171644 4.9311032,-0.223214886 7.59731917,1.22553566 Z M8.00397471,1.45421739 C8.62432618,1.81815178 9.24903358,2.24463726 9.86588115,2.7274999 C9.27000536,3.01812274 8.64140089,3.38958159 8.00376758,3.83872497 C7.36491732,3.38953959 6.73578109,3.01778922 6.13920033,2.7283732 C6.75683058,2.24516448 7.38251934,1.81825143 8.00397471,1.45421739 Z" id="形状结合" fill="#00A4FF" fill-rule="nonzero"></path>
    </g>
</svg>