<?xml version="1.0" encoding="UTF-8"?>
<svg width="16px" height="16px" viewBox="0 0 16 16" version="1.1" xmlns="http://www.w3.org/2000/svg" xmlns:xlink="http://www.w3.org/1999/xlink">
    <title>存储数据服务*16蓝</title>
    <g id="存储数据服务*16蓝" stroke="none" stroke-width="1" fill="none" fill-rule="evenodd">
        <g id="blue-(2)" transform="translate(1.000000, 0.000000)" fill="#00A4FF" fill-rule="nonzero">
            <path d="M12.5,10 C11.704,10 11.06,10.622 11.01,11.405 L7,13.696 L2,10.839 L2,9.732 L9.049,5.663 L7.038,4.514 L0,8.577 L0,12 L3.052,13.744 L7,16 L12.287,12.979 C12.357,12.989 12.427,13 12.5,13 C13.328,13 14,12.329 14,11.5 C14,10.671 13.328,10 12.5,10 Z M14,4 L14,7.423 L6.962,11.486 L4.951,10.337 L12,6.268 L12,5.161 L7,2.304 L2.99,4.595 C2.94,5.378 2.296,6 1.5,6 C0.672,6 0,5.329 0,4.5 C0,3.671 0.672,3 1.5,3 C1.573,3 1.643,3.011 1.713,3.021 L7,0 L14,4 Z" id="Fill-1"></path>
        </g>
    </g>
</svg>