<?xml version="1.0" encoding="UTF-8"?>
<svg width="16px" height="16px" viewBox="0 0 16 16" version="1.1" xmlns="http://www.w3.org/2000/svg" xmlns:xlink="http://www.w3.org/1999/xlink">
    <title>nosql-蓝</title>
    <g id="nosql-蓝" stroke="none" stroke-width="1" fill="none" fill-rule="evenodd">
        <g id="nosql">
            <rect id="矩形" x="0" y="0" width="16" height="16"></rect>
            <path d="M3,9 L3,11 L6,11 L6,9 L15,9 L15,15 L6,15 L6,13 L3,13 L3,15 L1,15 L1,9 L3,9 Z M13,11 L8,11 L8,13 L13,13 L13,11 Z M3,1 L3,3 L6,3 L6,1 L15,1 L15,7 L6,7 L6,5 L3,5 L3,7 L1,7 L1,1 L3,1 Z M13,3 L8,3 L8,5 L13,5 L13,3 Z" id="形状结合" fill="#00A4FF" fill-rule="nonzero"></path>
        </g>
    </g>
</svg>