<?xml version="1.0" encoding="UTF-8"?>
<svg width="16px" height="17px" viewBox="0 0 16 17" version="1.1" xmlns="http://www.w3.org/2000/svg" xmlns:xlink="http://www.w3.org/1999/xlink">
    <title>物联网开发平台 IoT Explorer (1)</title>
    <g id="Welcome" stroke="none" stroke-width="1" fill="none" fill-rule="evenodd">
        <g id="物联网开发平台-IoT-Explorer-(1)">
            <path d="M11.9,8 L12.9,8.6 L14.9,9.7 L14.9,12 L8,16.1 L1,12 L1,8.6 L3,9.8 L3,10.9 L8,13.7 L12.9,10.9 L9.9,9.1 L11.9,8 Z M10.6,5 L8,11 L6,11 L8.6,5 L10.6,5 Z M8,-7.17648163e-13 L14.9,4 L14.9,7.4 L12.9,6.3 L12.9,5.2 L8,2.3 L3,5.2 L6,6.9 L4,8.1 L1,6.3 L1,4 L8,-7.17648163e-13 Z" id="Combined-Shape" fill="#00A4FF" fill-rule="nonzero"></path>
            <rect id="矩形" x="0" y="0" width="16" height="16"></rect>
        </g>
    </g>
</svg>