<?xml version="1.0" encoding="UTF-8"?>
<svg width="16px" height="16px" viewBox="0 0 16 16" version="1.1" xmlns="http://www.w3.org/2000/svg" xmlns:xlink="http://www.w3.org/1999/xlink">
    <title>数据迁移*16蓝</title>
    <g id="数据迁移*16蓝" stroke="none" stroke-width="1" fill="none" fill-rule="evenodd">
        <path d="M6,15 C6,15.5522847 5.55228475,16 5,16 C4.44771525,16 4,15.5522847 4,15 L4,15 L1,15 L1,3 L4,3 L4,3 L4,1 C4,0.44771525 4.44771525,1.01453063e-16 5,0 L11,0 C11.5522847,-1.01453063e-16 12,0.44771525 12,1 L12,3 L15,3 L15,13 L13,13 L13,9 L3,9 L3,13 L15,13 L15,15 L12,15 C12,15.5522847 11.5522847,16 11,16 C10.4477153,16 10,15.5522847 10,15 L10,15 Z M13,5 L3,5 L3,7 L13,7 L13,5 Z M10,2 L6,2 L6,3 L10,3 L10,2 Z" id="Combined-Shape" fill="#00A4FF"></path>
    </g>
</svg>