<?xml version="1.0" encoding="UTF-8"?>
<svg width="16px" height="16px" viewBox="0 0 16 16" version="1.1" xmlns="http://www.w3.org/2000/svg" xmlns:xlink="http://www.w3.org/1999/xlink">
    <title>16px，00A4FF，描边2px_9</title>
    <defs>
        <polygon id="path-1" points="0.185814901 2.49090538 3.47782236 7.33336108 6.48456915 7.33336108 10.6393019 3.83740465 9.96796101 0.987262636 2.12836486 0"></polygon>
    </defs>
    <g id="16px，00A4FF，描边2px_9" stroke="none" stroke-width="1" fill="none" fill-rule="evenodd">
        <g id="编组-3备份-2">
            <g id="24px，7C848E，描边2px备份-4">
                <rect id="矩形" x="0" y="0" width="16" height="16"></rect>
                <path d="M7.50333482,-7.97149194e-07 C10.0527539,0.000458413046 12.5366117,0.787615843 14.6175564,2.24907234 L15,2.52666734 L15,3.11333398 C14.9882524,8.28434676 12.2937109,13.0696946 7.89897387,15.7660793 L7.59670965,15.9466667 L7.50333482,15.9999992 L7.40329035,15.9466667 C2.93475802,13.3463204 0.141823085,8.62164431 0.00518832592,3.47176754 L0,3.12000064 L0,2.52666734 L0.0733659404,2.47333401 C2.21699198,0.866930012 4.8241631,-0.000960961637 7.50333482,-7.97149194e-07 Z M7.50261746,1.9999992 C5.63055597,1.9993284 3.80044069,2.50457265 2.18875515,3.4624435 L2.01,3.572 L2.01918614,3.78098479 C2.23083947,7.65470875 4.17540652,11.2162137 7.24755415,13.4640642 L7.494,13.64 L7.70569642,13.4903768 C10.8247626,11.2168823 12.7719143,7.65206135 12.9812441,3.77995091 L12.989,3.571 L12.7985336,3.45294357 C11.3082487,2.56885462 9.61619388,2.06968271 7.87645101,2.00678229 L7.50261746,1.9999992 Z" id="形状" fill="#00A4FF" fill-rule="nonzero"></path>
            </g>
            <circle id="椭圆形" fill="#00A4FF" cx="7.5" cy="4.5" r="1.5"></circle>
            <g id="椭圆形" transform="translate(2.000000, 5.500000)">
                <mask id="mask-2" fill="white">
                    <use xlink:href="#path-1"></use>
                </mask>
                <g id="蒙版"></g>
                <path d="M5.5,1 C7.98528137,1 10,3.01471863 10,5.5 C10,7.98528137 7.98528137,10 5.5,10 C3.01471863,10 1,7.98528137 1,5.5 C1,3.01471863 3.01471863,1 5.5,1 Z M5.5,3 C4.11928813,3 3,4.11928813 3,5.5 C3,6.88071187 4.11928813,8 5.5,8 C6.88071187,8 8,6.88071187 8,5.5 C8,4.11928813 6.88071187,3 5.5,3 Z" id="形状结合" fill="#00A4FF" fill-rule="nonzero" mask="url(#mask-2)"></path>
            </g>
        </g>
        <rect id="矩形" x="0" y="0" width="16" height="16"></rect>
    </g>
</svg>