<?xml version="1.0" encoding="UTF-8"?>
<svg width="16px" height="16px" viewBox="0 0 16 16" version="1.1" xmlns="http://www.w3.org/2000/svg" xmlns:xlink="http://www.w3.org/1999/xlink">
    <!-- Generator: Sketch 64 (93537) - https://sketch.com -->
    <title>文旅行业_16_blue</title>
    <desc>Created with Sketch.</desc>
    <g id="页面-1" stroke="none" stroke-width="1" fill="none" fill-rule="evenodd">
        <g id="文旅行业_16_blue" fill="#33A4FB">
            <path d="M15,3 L15,14 L13,14 L13,14.5 C13,15.3284271 12.3284271,16 11.5,16 C10.6715729,16 10,15.3284271 10,14.5 L10,14 L6,14 L6,14.5 C6,15.3284271 5.32842712,16 4.5,16 C3.67157288,16 3,15.3284271 3,14.5 L3,14 L1,14 L1,3 L15,3 Z M13,5 L3,5 L3,12 L13,12 L13,5 Z M11,7 L11,10 L9,10 L9,7 L11,7 Z M7,7 L7,10 L5,10 L5,7 L7,7 Z M12,0 L12,2 L4,2 L4,0 L12,0 Z" id="形状结合备份-4"></path>
        </g>
    </g>
</svg>