<?xml version="1.0" encoding="UTF-8"?>
<svg width="16px" height="16px" viewBox="0 0 16 16" version="1.1" xmlns="http://www.w3.org/2000/svg" xmlns:xlink="http://www.w3.org/1999/xlink">
    <title>边缘计算-16px</title>
    <g id="边缘计算-16px" stroke="none" stroke-width="1" fill="none" fill-rule="evenodd">
        <g id="编组" fill="#02A4FF" fill-rule="nonzero">
            <path d="M9,0 C11.4188915,0 13.4366008,1.71766536 13.8999437,3.99981203 L16,4 L14,4 L14.3259292,6 L12.2651682,5.99966571 L11.9399326,4.397752 C11.6588427,3.01327389 10.432869,2 9,2 C7.62683388,2 6.44368094,2.93059355 6.10007156,4.22667204 L6.06006744,4.397752 L5.73542515,5.99674321 L4,6 C2.8954305,6 2,6.8954305 2,8 C2,9.0543618 2.81587779,9.91816512 3.85073766,9.99451426 L4,10 L5,10 L5,12 L4,12 C1.790861,12 0,10.209139 0,8 C0,5.85780461 1.68396847,4.10892112 3.80035966,4.00489531 L4.10005628,3.99981203 C4.56339924,1.71766536 6.5811085,0 9,0 Z" id="形状结合"></path>
            <path d="M16,13 L16,15 L6,15 L6,13 L16,13 Z M16,10 L16,12 L6,12 L6,10 L16,10 Z M16,7 L16,9 L6,9 L6,7 L16,7 Z" id="形状结合"></path>
        </g>
    </g>
</svg>