<?xml version="1.0" encoding="UTF-8"?>
<svg width="16px" height="16px" viewBox="0 0 16 16" version="1.1" xmlns="http://www.w3.org/2000/svg" xmlns:xlink="http://www.w3.org/1999/xlink">
    <title>LPWA 物联网络 (1)</title>
    <g id="Welcome" stroke="none" stroke-width="1" fill="none" fill-rule="evenodd">
        <g id="LPWA-物联网络-(1)">
            <path d="M3.09435615,14.3198574 L4.52346564,12.8907479 C5.50428451,13.589209 6.70416957,14 8,14 C9.29583043,14 10.4957155,13.589209 11.4765344,12.8907479 L12.9056439,14.3198574 C11.5509601,15.3729184 9.84871145,16 8,16 C6.15128855,16 4.44903985,15.3729184 3.09435615,14.3198574 L3.09435615,14.3198574 Z M1.68014258,12.9056439 C0.627081605,11.5509601 0,9.84871145 0,8 C0,6.15128855 0.627081605,4.44903985 1.68014258,3.09435615 L3.10925208,4.52346564 C2.41079097,5.50428451 2,6.70416957 2,8 C2,9.29583043 2.41079097,10.4957155 3.10925208,11.4765344 L1.68014258,12.9056439 L1.68014258,12.9056439 Z M3.09435615,1.68014258 C4.44903985,0.627081605 6.15128855,0 8,0 C9.84871145,0 11.5509601,0.627081605 12.9056439,1.68014258 L11.4765344,3.10925208 C10.4957155,2.41079097 9.29583043,2 8,2 C6.70416957,2 5.50428451,2.41079097 4.52346564,3.10925208 L3.09435615,1.68014258 Z M14.3198574,3.09435615 C15.3729184,4.44903985 16,6.15128855 16,8 C16,9.84871145 15.3729184,11.5509601 14.3198574,12.9056439 L12.8907479,11.4765344 C13.589209,10.4957155 14,9.29583043 14,8 C14,6.70416957 13.589209,5.50428451 12.8907479,4.52346564 L14.3198574,3.09435615 Z M8,12 C5.790861,12 4,10.209139 4,8 C4,5.790861 5.790861,4 8,4 C10.209139,4 12,5.790861 12,8 C12,10.209139 10.209139,12 8,12 Z M8,10 C9.1045695,10 10,9.1045695 10,8 C10,6.8954305 9.1045695,6 8,6 C6.8954305,6 6,6.8954305 6,8 C6,9.1045695 6.8954305,10 8,10 Z" id="Combined-Shape" fill="#00A4FF" fill-rule="nonzero"></path>
            <rect id="矩形" x="0" y="0" width="16" height="16"></rect>
        </g>
    </g>
</svg>