<?xml version="1.0" encoding="UTF-8"?>
<svg width="16px" height="16px" viewBox="0 0 16 16" version="1.1" xmlns="http://www.w3.org/2000/svg" xmlns:xlink="http://www.w3.org/1999/xlink">
    <title>操作系统-16</title>
    <g id="操作系统-16" stroke="none" stroke-width="1" fill="none" fill-rule="evenodd">
        <g id="computer-line-(1)">
            <polygon id="路径" points="0 0 16 0 16 16 0 16"></polygon>
            <path d="M3,9.5 L13,9.5 L13,3.5 L3,3.5 L3,9.5 Z M9,12.5 L12,12.5 L12,14.5 L4,14.5 L4,12.5 L7,12.5 L7,11.5 L1.66133333,11.5 C1.54346164,11.4992962 1.3230172,11.4992962 1,11.5 L1,2.17133333 C1,1.92422222 1,1.70044444 1,1.5 L15,1.5 C15,1.69955556 15,1.92333333 15,2.17133333 L15,11.5 C14.7977778,11.5 14.5773333,11.5 14.3386667,11.5 L9,11.5 L9,12.5 Z" id="形状" fill="#00A4FF" fill-rule="nonzero"></path>
        </g>
    </g>
</svg>