<?xml version="1.0" encoding="UTF-8"?>
<svg width="14px" height="16px" viewBox="0 0 14 16" version="1.1" xmlns="http://www.w3.org/2000/svg" xmlns:xlink="http://www.w3.org/1999/xlink">
    <title>BGP高防备份 2</title>
    <g id="Welcome" stroke="none" stroke-width="1" fill="none" fill-rule="evenodd">
        <g id="BGP高防备份-2" transform="translate(-1.000000, 0.000000)" fill="#00A4FF" fill-rule="nonzero">
            <path d="M14.8,0.7 L14.8,2.169 L14.8096674,2.16129876 L14.8,4.19136413 L14.7999871,8.60277766 C14.7993719,8.66922457 14.7929197,8.78569796 14.7756774,8.94516555 C14.7474322,9.20639474 14.6984461,9.4963146 14.6236893,9.80787372 C14.4105735,10.6960625 14.0336385,11.5840292 13.4519452,12.4134624 C12.3746901,13.9495144 10.72728,15.09847 8.4191416,15.7052682 L8.06795405,15.7922024 L7.93204595,15.7922024 C5.10842455,15.1355463 3.23711059,13.7088617 2.15453042,11.7891965 C1.53261703,10.6864001 1.2668986,9.62885889 1.21028423,8.81574292 L1.20040185,8.61767138 L1.19998417,0.7 L14.8,0.7 Z M2.799,5.716 L2.80067687,8.628065 C2.82302282,9.24440545 3.02432718,10.1042795 3.51588404,10.9845851 C4.20232921,12.2139068 5.31353869,13.1964577 6.94675283,13.81339 L7.198,13.902 L7.199,9.678 L2.799,5.716 Z M13.2,5.763 L8.798,9.725 L8.8,13.884 L9.04114888,13.7952982 C10.4654637,13.2362255 11.5472396,12.4075703 12.2578852,11.3279278 L12.4044755,11.092741 L12.5382482,10.853419 C12.9755163,10.0725832 13.1580273,9.31839236 13.1935819,8.76428144 L13.2,8.6 L13.2,5.763 Z M14.654,2.3 L2.8,2.3 L2.8,3.566 L8.024,8.269 L14.654,2.3 Z" id="形状结合"></path>
        </g>
    </g>
</svg>