<?xml version="1.0" encoding="UTF-8"?>
<svg width="16px" height="16px" viewBox="0 0 16 16" version="1.1" xmlns="http://www.w3.org/2000/svg" xmlns:xlink="http://www.w3.org/1999/xlink">
    <title>分布式-蓝</title>
    <g id="分布式-蓝" stroke="none" stroke-width="1" fill="none" fill-rule="evenodd">
        <rect id="矩形" x="0" y="0" width="16" height="16"></rect>
        <path d="M15,1 L15,7 L9,7 L9,5 L8,5 L8,11 L9,11 L9,9 L15,9 L15,15 L9,15 L9,13 L6,13 L6,9 L5,9 L5,12 L0,12 L0,4 L5,4 L5,7 L6,7 L6,3 L9,3 L9,1 L15,1 Z M13,11 L11,11 L11,13 L13,13 L13,11 Z M3,6 L2,6 L2,10 L3,10 L3,6 Z M13,3 L11,3 L11,5 L13,5 L13,3 Z" id="形状结合" fill="#00A4FF" fill-rule="nonzero"></path>
    </g>
</svg>