<?xml version="1.0" encoding="UTF-8"?>
<svg width="16px" height="16px" viewBox="0 0 16 16" version="1.1" xmlns="http://www.w3.org/2000/svg" xmlns:xlink="http://www.w3.org/1999/xlink">
    <!-- Generator: Sketch 57.1 (83088) - https://sketch.com -->
    <title>【16px-蓝】应用程序集成</title>
    <desc>Created with Sketch.</desc>
    <g id="【16px-蓝】应用程序集成" stroke="none" stroke-width="1" fill="none" fill-rule="evenodd">
        <g id="1560250264250_srm5af2ddasbutyb9" transform="translate(0.000000, 1.000000)" fill="#00A4FF" fill-rule="nonzero">
            <path d="M14,3 L11.5661904,3 L5.56619038,13 L2,13 L0,13 L0,3 L0,1 L3.26756439,1 C3.61337381,0.40219863 4.25971764,0 5,0 C6.1045695,0 7,0.8954305 7,2 C7,3.1045695 6.1045695,4 5,4 C4.25971764,4 3.61337381,3.59780137 3.26756439,3 L2,3 L2,11 L4.43380962,11 L10.4338096,1 L14,1 L16,1 L16,3 L16,11 L16,13 L12.7324356,13 C12.3866262,13.5978014 11.7402824,14 11,14 C9.8954305,14 9,13.1045695 9,12 C9,10.8954305 9.8954305,10 11,10 C11.7402824,10 12.3866262,10.4021986 12.7324356,11 L14,11 L14,3 Z" id="Combined-Shape-Copy"></path>
        </g>
    </g>
</svg>