<?xml version="1.0" encoding="UTF-8"?>
<svg width="16px" height="16px" viewBox="0 0 16 16" version="1.1" xmlns="http://www.w3.org/2000/svg" xmlns:xlink="http://www.w3.org/1999/xlink">
    <title>混合云存储*16蓝</title>
    <g id="混合云存储*16蓝" stroke="none" stroke-width="1" fill="none" fill-rule="evenodd">
        <g id="存储网关" transform="translate(1.000000, 0.000000)" fill="#00A4FF" fill-rule="nonzero">
            <path d="M14,4.12006397 L7,0 L0,4.12006397 L0.00325351919,7.6858837 L5.00325352,10.6214293 C5.17166736,11.5458301 5.92655066,12.2353631 6.83771057,12.2970772 C7.74887049,12.3587914 8.584916,11.7770143 8.86940156,10.8832891 C9.15388713,9.98956381 8.81456702,9.01085381 8.04481295,8.50490626 C7.27505888,7.99895871 6.27035157,8.09426007 5.60325352,8.73650001 L2.00325352,6.47046483 L2,5.23248124 L7,2.20423422 L12,5.1912806 L12,6.22129659 L14,7.25131258 L14,4.12006397 Z" id="Shape"></path>
            <path d="M0,8.76466112 L0,11.8655206 L7,16 L14,11.8655206 L14,8.19064992 L9,5.36886776 C8.89803049,4.42928706 8.19234334,3.68095406 7.28623249,3.55153444 C6.38012164,3.42211482 5.50454011,3.94459554 5.15987497,4.82038351 C4.81520982,5.69617147 5.08931064,6.70204249 5.82553123,7.2631502 C6.56175182,7.82425791 7.57244147,7.79758503 8.28,7.19837487 L12,9.34830414 L12,10.7595474 L7,13.8604069 L2,10.7595474 L2,9.90164295 L0,8.76466112 Z" id="Shape"></path>
        </g>
    </g>
</svg>