<svg   width="16px"   height="16px"  viewBox="0 0 16 16" version="1.1" xmlns="http://www.w3.org/2000/svg" xmlns:xlink="http://www.w3.org/1999/xlink">
    <title>腾讯微服务平台-16px</title>
    <g id="腾讯微服务平台-16px" stroke="none" stroke-width="1" fill="none" fill-rule="evenodd">
        <g id="编组">
            <path d="M8,13 C8.82842712,13 9.5,13.6715729 9.5,14.5 C9.5,15.3284271 8.82842712,16 8,16 C7.17157288,16 6.5,15.3284271 6.5,14.5 C6.5,13.6715729 7.17157288,13 8,13 Z M10.356109,2.33794812 L15,4.977 L15,6.227 L12.8,7.727 L15,8.977 L15,10.227 L10.2709509,13.4531962 C9.97067118,12.8028475 9.39924597,12.3033919 8.70164999,12.099804 L12.223257,9.6998653 L10.96,8.981 L8,11 L5.04,8.981 L3.77674297,9.6998653 L7.29835001,12.099804 C6.60110946,12.3032881 6.02991114,12.8023386 5.72950829,13.4522023 L1,10.226 L1,8.977 L3.2,7.727 L1,6.226 L1,4.977 L5.64425091,2.33895942 C5.88577625,3.0170996 6.4118134,3.56025706 7.07869652,3.82476597 L3.77674297,5.6998653 L5.136,6.627 L8,5 L10.863,6.626 L12.223257,5.6998653 L8.92130348,3.82476597 C9.58851807,3.56012559 10.1147466,3.01655958 10.356109,2.33794812 Z M8,7.30028744 L6.976,7.881 L8,8.57935874 L9.023,7.881 L8,7.30028744 Z M8,0 C8.82842712,0 9.5,0.671572875 9.5,1.5 C9.5,2.32842712 8.82842712,3 8,3 C7.17157288,3 6.5,2.32842712 6.5,1.5 C6.5,0.671572875 7.17157288,0 8,0 Z" id="形状结合" fill="#00A4FF"></path>
            <rect id="矩形" x="0" y="0" width="16" height="16"></rect>
        </g>
    </g>
</svg>