<?xml version="1.0" encoding="UTF-8"?>
<svg width="16px" height="16px" viewBox="0 0 16 16" version="1.1" xmlns="http://www.w3.org/2000/svg" xmlns:xlink="http://www.w3.org/1999/xlink">
    <title>软硬一体-蓝</title>
    <g id="软硬一体-蓝" stroke="none" stroke-width="1" fill="none" fill-rule="evenodd">
        <g id="软硬一体">
            <rect id="矩形" x="0" y="0" width="16" height="16"></rect>
            <path d="M9,1 C12.8659932,1 16,4.13400675 16,8 C16,11.8659932 12.8659932,15 9,15 C6.0143181,15 3.46522035,13.1307611 2.45913687,10.4987134 L2.5,10.5 C1.11928813,10.5 0,9.38071187 0,8 C0,6.63334628 1.09661139,5.52281988 2.45790774,5.5003472 C3.46522035,2.86923892 6.0143181,1 9,1 Z M9,3 C6.84553222,3 5.00932948,4.3626546 4.30622639,6.27312919 C4.40051753,6.37016823 4.48593902,6.47522489 4.56254042,6.58680992 C4.92386863,6.96553755 5.43452867,7.20021263 6,7.20021263 C6.48698869,7.20021263 6.93332494,7.02615881 7.28019401,6.73686591 C7.75547038,5.71075808 8.79473197,5 10,5 C11.6568542,5 13,6.34314575 13,8 C13,9.65685425 11.6568542,11 10,11 C8.79628916,11 7.75815608,10.2910773 7.2803429,9.26797407 C6.93443867,8.97625748 6.48759631,8.80176906 6,8.80176906 C5.43590942,8.80176906 4.9263628,9.03529949 4.56276641,9.41095407 C4.48622455,9.52300918 4.40076757,9.6284939 4.30741615,9.72639441 C5.00868768,11.6368691 6.8451557,13 9,13 C11.7614237,13 14,10.7614237 14,8 C14,5.23857625 11.7614237,3 9,3 Z M10,7 C9.44771525,7 9,7.44771525 9,8 C9,8.55228475 9.44771525,9 10,9 C10.5522847,9 11,8.55228475 11,8 C11,7.44771525 10.5522847,7 10,7 Z" id="形状结合" fill="#00A4FF" fill-rule="nonzero"></path>
        </g>
    </g>
</svg>