<?xml version="1.0" encoding="UTF-8"?>
<svg width="16px" height="16px" viewBox="0 0 16 16" version="1.1" xmlns="http://www.w3.org/2000/svg" xmlns:xlink="http://www.w3.org/1999/xlink">
    <!-- Generator: Sketch 53.2 (72643) - https://sketchapp.com -->
    <title>16-蓝 copy 2</title>
    <desc>Created with Sketch.</desc>
    <g id="16-蓝-copy-2" stroke="none" stroke-width="1" fill="none" fill-rule="evenodd">
        <path d="M8,1.03923048 L1.97179677,4.51961524 L1.97179677,11.4803848 L8,14.9607695 L14.0282032,11.4803848 L14.0282032,4.51961524 L8,1.03923048 Z" id="多边形" stroke="#00A4FF" stroke-width="1.8" transform="translate(8.000000, 8.000000) rotate(-90.000000) translate(-8.000000, -8.000000) "></path>
        <path d="M7.84110768,5 L8.87412618,11 L7.2768439,11 L7.19901808,9.92155652 L6.40846201,9.92155652 L6.31581223,11 L4.7,11 L5.58415894,5 L7.84110768,5 Z M7.15454619,8.857937 C7.10183849,8.40498023 6.97615248,7.56619086 6.77748816,6.34156887 C6.54547127,7.66501779 6.4162859,8.50380716 6.38993206,8.857937 L7.15454619,8.857937 Z M11.3602224,5 L11.3602224,11 L9.8,11 L9.8,5 L11.3602224,5 Z" id="合并形状" fill="#00A4FF" fill-rule="nonzero"></path>
    </g>
</svg>