<?xml version="1.0" encoding="UTF-8"?>
<svg width="16px" height="16px" viewBox="0 0 16 16" version="1.1" xmlns="http://www.w3.org/2000/svg" xmlns:xlink="http://www.w3.org/1999/xlink">
    <title>物联网通信 IoT Hub (1)</title>
    <g id="Welcome" stroke="none" stroke-width="1" fill="none" fill-rule="evenodd">
        <g id="物联网通信-IoT-Hub-(1)">
            <path d="M8,-1.77635684e-15 C12.418,-1.77635684e-15 16,3.582 16,8 C16,12.418 12.418,16 8,16 C3.582,16 0,12.418 0,8 C0,3.582 3.582,-1.77635684e-15 8,-1.77635684e-15 Z M8,2 C4.691,2 2,4.691 2,8 C2,11.309 4.691,14 8,14 C11.309,14 14,11.309 14,8 C14,4.691 11.309,2 8,2 Z M10.1213203,4.46446609 L13.6568542,8 L10.1213203,11.5355339 L8,9.41421356 L5.87867966,11.5355339 L2.34314575,8 L5.87867966,4.46446609 L8,6.58578644 L10.1213203,4.46446609 Z M5.87867966,7.29289322 L5.17157288,8 L5.87867966,8.70710678 L6.58578644,8 L5.87867966,7.29289322 Z M10.1213203,7.29289322 L9.41421356,8 L10.1213203,8.70710678 L10.8284271,8 L10.1213203,7.29289322 Z" id="形状结合" fill="#03A4FF" fill-rule="nonzero"></path>
            <rect id="矩形" transform="translate(8.000000, 8.000000) rotate(-180.000000) translate(-8.000000, -8.000000) " x="0" y="-1.77635684e-15" width="16" height="16"></rect>
        </g>
    </g>
</svg>